<svg width="100" height="14" viewBox="0 0 100 14" fill="none" xmlns="http://www.w3.org/2000/svg">
<path d="M6.06 0.327999C6.5 0.327999 7.012 0.388 7.596 0.508C8.18 0.628 8.604 0.756 8.868 0.891999V3.304H8.148C7.444 2.088 6.516 1.48 5.364 1.48C4.868 1.48 4.416 1.628 4.008 1.924C3.608 2.22 3.288 2.632 3.048 3.16C2.816 3.68 2.7 4.268 2.7 4.924C2.7 5.668 2.816 6.348 3.048 6.964C3.28 7.58 3.632 8.076 4.104 8.452C4.576 8.82 5.16 9.004 5.856 9.004C6.544 9.004 7.544 8.536 8.856 7.6L9.264 8.26L7.056 9.976C6.736 10.08 6.428 10.148 6.132 10.18C5.836 10.22 5.52 10.24 5.184 10.24C4.32 10.24 3.552 10.036 2.88 9.628C2.216 9.22 1.7 8.66 1.332 7.948C0.964 7.228 0.78 6.412 0.78 5.5C0.78 4.564 1.056 3.7 1.608 2.908C2.168 2.108 2.86 1.48 3.684 1.024C4.516 0.559999 5.308 0.327999 6.06 0.327999ZM14.4378 3.472C14.9898 3.472 15.4858 3.612 15.9258 3.892C16.3658 4.164 16.7058 4.536 16.9458 5.008C17.1938 5.48 17.3178 6.004 17.3178 6.58C17.3178 7.204 17.1218 7.788 16.7298 8.332C16.3458 8.876 15.8618 9.312 15.2778 9.64C14.6938 9.96 14.1298 10.12 13.5858 10.12C13.0338 10.12 12.5378 9.984 12.0978 9.712C11.6658 9.432 11.3258 9.056 11.0778 8.584C10.8298 8.104 10.7058 7.576 10.7058 7C10.7058 6.376 10.8978 5.796 11.2818 5.26C11.6738 4.716 12.1618 4.284 12.7458 3.964C13.3298 3.636 13.8938 3.472 14.4378 3.472ZM13.7418 4.624C13.3418 4.624 13.0378 4.776 12.8298 5.08C12.6298 5.384 12.5298 5.832 12.5298 6.424C12.5298 7.152 12.6818 7.756 12.9858 8.236C13.2898 8.716 13.7218 8.956 14.2818 8.956C15.0978 8.956 15.5058 8.352 15.5058 7.144C15.5058 6.424 15.3538 5.824 15.0498 5.344C14.7458 4.864 14.3098 4.624 13.7418 4.624ZM30.0698 10H27.6098V5.98C27.6098 5.58 27.5458 5.304 27.4178 5.152C27.2978 4.992 27.0818 4.912 26.7698 4.912C26.5538 4.912 26.3338 4.952 26.1098 5.032C25.8938 5.112 25.6458 5.264 25.3658 5.488V9.016L26.4098 9.4L26.1098 10H23.6858V5.98C23.6858 5.58 23.6218 5.304 23.4938 5.152C23.3738 4.992 23.1578 4.912 22.8458 4.912C22.6218 4.912 22.3978 4.952 22.1738 5.032C21.9578 5.112 21.7098 5.264 21.4298 5.488V9.016L22.4858 9.4L22.1858 10H18.6818V9.508L19.7498 8.644V5.524L18.6818 4.876V4.384L20.9138 3.364L21.3338 4.84L22.8698 3.568C23.0218 3.504 23.2418 3.472 23.5298 3.472C24.0018 3.472 24.3938 3.592 24.7057 3.832C25.0178 4.064 25.2218 4.388 25.3178 4.804L26.8058 3.568C26.9578 3.504 27.1778 3.472 27.4658 3.472C28.0258 3.472 28.4698 3.64 28.7978 3.976C29.1338 4.304 29.3018 4.752 29.3018 5.32V9.004L30.3698 9.4L30.0698 10ZM35.0371 10.12C34.6451 10.12 34.2891 10.008 33.9691 9.784V11.956L35.7091 12.448L35.4091 13.048H31.2211V12.556L32.2891 11.704V5.524L31.2211 4.876V4.384L33.4531 3.364L33.8731 4.852L35.5051 3.568C35.7611 3.504 36.0531 3.472 36.3811 3.472C36.8371 3.472 37.2451 3.612 37.6051 3.892C37.9731 4.164 38.2611 4.536 38.4691 5.008C38.6771 5.48 38.7811 6.004 38.7811 6.58C38.7811 7.204 38.5851 7.788 38.1931 8.332C37.8091 8.876 37.3251 9.312 36.7411 9.64C36.1571 9.96 35.5931 10.12 35.0491 10.12H35.0371ZM35.7091 4.816C35.4131 4.816 35.1291 4.868 34.8571 4.972C34.5931 5.068 34.2931 5.252 33.9571 5.524V7.504C33.9571 7.92 34.1091 8.268 34.4131 8.548C34.7251 8.82 35.1651 8.956 35.7331 8.956C36.5571 8.956 36.9691 8.356 36.9691 7.156C36.9691 6.492 36.8611 5.936 36.6451 5.488C36.4291 5.04 36.1171 4.816 35.7091 4.816ZM46.6905 10H44.2305V8.956L42.8745 10.024C42.7145 10.088 42.5145 10.12 42.2745 10.12C41.5545 10.12 41.0305 9.944 40.7025 9.592C40.3825 9.232 40.2225 8.8 40.2225 8.296C40.2225 8 40.3225 7.712 40.5225 7.432C40.7305 7.144 41.0225 6.872 41.3985 6.616H44.2305V6.064C44.2305 5.152 43.7425 4.696 42.7665 4.696C42.2545 4.696 41.5985 4.964 40.7985 5.5L40.4385 4.96L42.1425 3.604C42.4785 3.516 42.8985 3.472 43.4025 3.472C44.1945 3.472 44.8105 3.66 45.2505 4.036C45.6905 4.412 45.9105 4.96 45.9105 5.68V8.98L46.9905 9.4L46.6905 10ZM42.7425 8.86C43.1905 8.86 43.6865 8.656 44.2305 8.248V7.228H42.1785C42.0185 7.42 41.9385 7.652 41.9385 7.924C41.9385 8.188 42.0105 8.412 42.1545 8.596C42.3065 8.772 42.5025 8.86 42.7425 8.86ZM55.4346 10H52.9746V6.04C52.9746 5.616 52.9106 5.324 52.7826 5.164C52.6546 4.996 52.4306 4.912 52.1106 4.912C51.8706 4.912 51.6306 4.952 51.3906 5.032C51.1506 5.112 50.8786 5.264 50.5746 5.488V9.004L51.6546 9.4L51.3546 10H47.8266V9.508L48.8946 8.644V5.524L47.8266 4.876V4.384L50.0586 3.364L50.4786 4.852L52.0986 3.568C52.2666 3.504 52.4986 3.472 52.7946 3.472C53.3626 3.472 53.8146 3.64 54.1506 3.976C54.4866 4.304 54.6546 4.752 54.6546 5.32V9.004L55.7346 9.4L55.4346 10ZM63.1808 4.096L60.1208 10.012L57.4928 13.18L56.9168 12.736C57.3488 12.248 57.6808 11.82 57.9128 11.452C58.1528 11.084 58.3208 10.712 58.4168 10.336C58.5208 9.968 58.5768 9.544 58.5848 9.064L57.1328 5.536L55.9928 4.864V4.372L58.2848 3.364L58.7408 5.176L60.1448 8.596L61.7408 5.356L60.0848 4.192L60.3848 3.592L63.1808 3.604V4.096ZM74.9543 10H67.5623V9.508L68.6903 8.62V1.552L67.4183 1.168L67.7183 0.568H71.6063V1.06L70.4663 1.948V9.304H73.4063L75.2063 6.676L75.6863 6.856V10.216L74.9543 10ZM80.8831 3.472C81.4351 3.472 81.9311 3.612 82.3711 3.892C82.8111 4.164 83.1511 4.536 83.3911 5.008C83.6391 5.48 83.7631 6.004 83.7631 6.58C83.7631 7.204 83.5671 7.788 83.1751 8.332C82.7911 8.876 82.3071 9.312 81.7231 9.64C81.1391 9.96 80.5751 10.12 80.0311 10.12C79.4791 10.12 78.9831 9.984 78.5431 9.712C78.1111 9.432 77.7711 9.056 77.5231 8.584C77.2751 8.104 77.1511 7.576 77.1511 7C77.1511 6.376 77.3431 5.796 77.7271 5.26C78.1191 4.716 78.6071 4.284 79.1911 3.964C79.7751 3.636 80.3391 3.472 80.8831 3.472ZM80.1871 4.624C79.7871 4.624 79.4831 4.776 79.2751 5.08C79.0751 5.384 78.9751 5.832 78.9751 6.424C78.9751 7.152 79.1271 7.756 79.4311 8.236C79.7351 8.716 80.1671 8.956 80.7271 8.956C81.5431 8.956 81.9511 8.352 81.9511 7.144C81.9511 6.424 81.7991 5.824 81.4951 5.344C81.1911 4.864 80.7551 4.624 80.1871 4.624ZM90.6231 4.564C90.8151 4.868 90.9111 5.192 90.9111 5.536C90.9111 6.056 90.6991 6.552 90.2751 7.024C89.8591 7.488 89.3431 7.82 88.7271 8.02C88.5191 8.252 88.4151 8.48 88.4151 8.704C88.4151 8.832 88.5111 8.952 88.7031 9.064C88.8951 9.168 89.1991 9.308 89.6151 9.484C90.1831 9.716 90.6151 9.928 90.9111 10.12C91.2151 10.32 91.3671 10.556 91.3671 10.828C91.3671 11.076 91.2111 11.388 90.8991 11.764C90.5871 12.14 90.1951 12.468 89.7231 12.748C89.2591 13.028 88.8111 13.168 88.3791 13.168C87.9071 13.168 87.3551 13.092 86.7231 12.94C86.0911 12.788 85.5631 12.636 85.1391 12.484V10.516H85.7151C86.1471 11.06 86.5831 11.472 87.0231 11.752C87.4631 12.04 87.9591 12.184 88.5111 12.184C88.7111 12.184 88.8911 12.144 89.0511 12.064C89.2191 11.992 89.3471 11.9 89.4351 11.788C89.5311 11.676 89.5791 11.568 89.5791 11.464C89.5791 11.264 89.4591 11.084 89.2191 10.924C88.9791 10.772 88.6191 10.592 88.1391 10.384C87.6511 10.176 87.2831 9.996 87.0351 9.844C86.7951 9.684 86.6751 9.5 86.6751 9.292C86.6751 9.1 86.8111 8.904 87.0831 8.704C87.3551 8.504 87.6751 8.328 88.0431 8.176C87.8831 8.192 87.7631 8.2 87.6831 8.2C87.2351 8.2 86.8231 8.108 86.4471 7.924C86.0791 7.732 85.7871 7.476 85.5711 7.156C85.3551 6.836 85.2471 6.492 85.2471 6.124C85.2471 5.684 85.4031 5.26 85.7151 4.852C86.0351 4.436 86.4471 4.104 86.9511 3.856C87.4551 3.6 87.9711 3.472 88.4991 3.472C89.0911 3.472 89.6111 3.632 90.0591 3.952H91.9791L91.9671 4.564H90.6231ZM88.3551 7.036C89.0111 7.036 89.3391 6.724 89.3391 6.1C89.3391 5.66 89.1951 5.304 88.9071 5.032C88.6271 4.76 88.2511 4.624 87.7791 4.624C87.4671 4.624 87.2271 4.7 87.0591 4.852C86.8911 5.004 86.8071 5.232 86.8071 5.536C86.8071 5.984 86.9471 6.348 87.2271 6.628C87.5151 6.9 87.8911 7.036 88.3551 7.036ZM96.5511 3.472C97.1031 3.472 97.5991 3.612 98.0391 3.892C98.4791 4.164 98.8191 4.536 99.0591 5.008C99.3071 5.48 99.4311 6.004 99.4311 6.58C99.4311 7.204 99.2351 7.788 98.8431 8.332C98.4591 8.876 97.9751 9.312 97.3911 9.64C96.8071 9.96 96.2431 10.12 95.6991 10.12C95.1471 10.12 94.6511 9.984 94.2111 9.712C93.7791 9.432 93.4391 9.056 93.1911 8.584C92.9431 8.104 92.8191 7.576 92.8191 7C92.8191 6.376 93.0111 5.796 93.3951 5.26C93.7871 4.716 94.2751 4.284 94.8591 3.964C95.4431 3.636 96.0071 3.472 96.5511 3.472ZM95.8551 4.624C95.4551 4.624 95.1511 4.776 94.9431 5.08C94.7431 5.384 94.6431 5.832 94.6431 6.424C94.6431 7.152 94.7951 7.756 95.0991 8.236C95.4031 8.716 95.8351 8.956 96.3951 8.956C97.2111 8.956 97.6191 8.352 97.6191 7.144C97.6191 6.424 97.4671 5.824 97.1631 5.344C96.8591 4.864 96.4231 4.624 95.8551 4.624Z" fill="black"/>
</svg>
