<svg width="234" height="249" viewBox="0 0 234 249" fill="none" xmlns="http://www.w3.org/2000/svg">
<path d="M128.325 29.0712C123.93 26.408 118.889 25 113.75 25C108.611 25 103.57 26.408 99.175 29.0712L33.55 68.8462C29.4145 71.352 25.995 74.8817 23.6215 79.0945C21.2479 83.3073 20.0007 88.0608 20 92.8962V156.996C20.0007 161.832 21.2479 166.585 23.6215 170.798C25.995 175.011 29.4145 178.54 33.55 181.046L99.175 220.821C103.57 223.484 108.611 224.892 113.75 224.892C118.889 224.892 123.93 223.484 128.325 220.821L193.95 181.046C198.085 178.54 201.505 175.011 203.879 170.798C206.252 166.585 207.499 161.832 207.5 156.996V92.8962C207.499 88.0608 206.252 83.3073 203.879 79.0945C201.505 74.8817 198.085 71.352 193.95 68.8462L128.325 29.0712Z" fill="#6C0AFF"/>
<path d="M180.778 85.0903H134.837C133.213 85.0903 131.677 85.8149 130.644 87.0685C129.612 88.3185 129.195 89.967 129.503 91.5575L141.583 153.93H92.3733C90.7428 153.93 89.2031 154.658 88.1669 155.919C87.1344 157.176 86.7249 158.835 87.0439 160.43L95.7395 203.907C96.2685 206.548 98.5113 208.175 100.874 208.277H180.778C189.767 208.277 197.082 200.961 197.082 191.972V101.394C197.082 92.4054 189.767 85.0903 180.778 85.0903Z" fill="#B8C9D9"/>
<path d="M180.778 134.002H164.474V128.568C164.474 125.567 162.04 123.133 159.039 123.133C156.038 123.133 153.605 125.567 153.605 128.568V134.002H137.301C134.299 134.002 131.866 136.436 131.866 139.437C131.866 142.438 134.299 144.872 137.301 144.872H143.154C144.194 151.337 147.145 156.237 151.472 161.197C149.149 163.461 146.905 165.625 144.327 168.202C142.205 170.324 142.205 173.765 144.327 175.888C146.449 178.011 149.89 178.011 152.013 175.888C154.55 173.351 156.789 171.193 159.039 168.999C161.286 171.19 163.528 173.351 166.066 175.888C168.188 178.011 171.629 178.011 173.752 175.888C175.874 173.766 175.874 170.325 173.752 168.202C171.176 165.626 168.934 163.464 166.607 161.197C170.934 156.238 173.885 151.337 174.925 144.872H180.778C183.78 144.872 186.213 142.438 186.213 139.437C186.213 136.436 183.779 134.002 180.778 134.002ZM159.039 153.341C156.655 150.497 155.083 147.888 154.27 144.872H163.808C162.995 147.888 161.422 150.498 159.039 153.341Z" fill="#E6F3FF"/>
<path d="M153.231 157.386C152.416 155.303 150.405 153.93 148.17 153.93H92.3733C90.7428 153.93 89.2031 154.658 88.1669 155.919C87.1344 157.176 86.7249 158.836 87.0439 160.43L95.7395 203.907C96.2685 206.549 98.5113 208.175 100.874 208.277C101.03 208.28 101.185 208.28 101.341 208.277C102.547 208.222 103.754 207.762 104.758 206.838L151.858 163.361C153.503 161.842 154.046 159.469 153.231 157.386Z" fill="#2860CC"/>
<path d="M148.17 164.799H46.722C37.7314 164.799 30.418 157.486 30.418 148.495V57.9168C30.418 48.9266 37.7318 41.6128 46.722 41.6128H126.431C129.035 41.6128 131.271 43.4598 131.766 46.0142L153.505 158.331C153.813 159.923 153.395 161.572 152.362 162.821C151.329 164.074 149.794 164.799 148.17 164.799Z" fill="#167EE6"/>
<path d="M84.765 124.945C72.7812 124.945 63.0264 115.19 63.0264 103.206C63.0264 91.2227 72.7812 81.4678 84.765 81.4678C87.7051 81.4678 90.5605 82.0514 93.2354 83.1872C95.9951 84.3656 97.2796 87.5602 96.1012 90.3203C94.9229 93.0697 91.7386 94.3646 88.9681 93.1862C87.6517 92.6234 86.2295 92.3369 84.7646 92.3369C78.7673 92.3369 73.8952 97.209 73.8952 103.206C73.8952 109.204 78.7673 114.076 84.7646 114.076C88.777 114.076 92.2904 111.889 94.1797 108.641H90.1992C87.1953 108.641 84.7646 106.211 84.7646 103.207C84.7646 100.203 87.1953 97.7721 90.1992 97.7721H101.069C104.073 97.7721 106.503 100.203 106.503 103.207C106.504 115.19 96.7487 124.945 84.765 124.945Z" fill="#E6F3FF"/>
<path d="M226.071 45.1383L136.232 136.862C127.285 145.996 100.729 150.226 94.796 144.169C88.8632 138.112 92.9126 110.998 101.859 101.864L191.793 10.0445C194.011 7.57411 196.696 5.5883 199.686 4.20667C202.676 2.82504 205.91 2.07606 209.192 2.00549C212.473 1.93501 215.735 2.54401 218.78 3.79593C221.824 5.04786 224.589 6.91695 226.907 9.28985C229.224 11.6627 231.047 14.4904 232.265 17.6023C233.483 20.7143 234.071 24.0458 233.993 27.396C233.915 30.7462 233.172 34.0459 231.811 37.0952C230.449 40.1445 228.497 42.8807 226.071 45.1383Z" fill="#FFA500"/>
<path d="M114.135 5.63672H53.5046C40.6403 5.63672 28.3038 11.2173 19.2074 21.1511C10.1111 31.0849 5 44.5579 5 58.6064V191.031C5 205.079 10.1111 218.552 19.2074 228.485C28.3038 238.42 40.6403 244 53.5046 244H186.892C213.691 244 223.271 220.164 223.271 191.031V124.818" stroke="#FFA500" strokeWidth="10" strokeLinecap="round" strokeLinejoin="round"/>
</svg>
